<svg id="Layer_1" data-name="Layer 1" xmlns="http://www.w3.org/2000/svg" viewBox="0 0 320 128"><defs><style>.cls-1{fill:#ff7578;}.cls-2{fill:none;stroke:#fff;stroke-miterlimit:10;stroke-width:6px;}.cls-3{font-size:48px;fill:#fff;font-family:Adrianna-Demibold, Adrianna;font-weight:300;letter-spacing:-0.08em;}.cls-4{letter-spacing:0em;}</style></defs><rect class="cls-1" width="320" height="128"/><circle class="cls-2" cx="63.96" cy="64" r="48"/><path class="cls-2" d="M635.24,426.18" transform="translate(-524.71 -373.86)"/><path class="cls-2" d="M586.83,435c20.18,7.41,34.38,19.76,43.23,27.2,4.29-.71,3,6.55,9.24,6.85,9.05,1.63,54-13.24,42.63-4.19-26.18,20.78,55.1-3.73,65.24,4.19q1.16,4.51-8.22,11.73" transform="translate(-524.71 -373.86)"/><path class="cls-2" d="M554.09,424.59" transform="translate(-524.71 -373.86)"/><path class="cls-2" d="M547.28,462.16c.42-7.73-1.1-30.88,14.77-50.31,11-13.52,27.53-18.21,34.67-21.31" transform="translate(-524.71 -373.86)"/><path class="cls-2" d="M556.86,473.81A92.75,92.75,0,0,1,577.48,422a91.42,91.42,0,0,1,34.86-25.87" transform="translate(-524.71 -373.86)"/><path class="cls-2" d="M572,482.88a92.76,92.76,0,0,1,19.48-50.4,91.58,91.58,0,0,1,33.35-26.17" transform="translate(-524.71 -373.86)"/><path class="cls-2" d="M591.65,482.88" transform="translate(-524.71 -373.86)"/><path class="cls-2" d="M578.43,455.06a40.71,40.71,0,0,0,25.16-10.58" transform="translate(-524.71 -373.86)"/><path class="cls-2" d="M574.32,468a67.81,67.81,0,0,0,42.46-15.79" transform="translate(-524.71 -373.86)"/><path class="cls-2" d="M572.59,477.26a65.21,65.21,0,0,0,53.77-17.13" transform="translate(-524.71 -373.86)"/><path class="cls-2" d="M635.24,448.56a65.53,65.53,0,0,0-36.82-23.86" transform="translate(-524.71 -373.86)"/><path class="cls-2" d="M636.29,431.82a59.34,59.34,0,0,0-26.92-16.45" transform="translate(-524.71 -373.86)"/><text class="cls-3" transform="translate(123.29 81.2)">Y<tspan class="cls-4" x="26.3" y="0">arnin’it</tspan></text></svg>